<svg width="567" height="375" viewBox="0 0 567 375" fill="none" xmlns="http://www.w3.org/2000/svg">
<path fill-rule="evenodd" clip-rule="evenodd" d="M255.414 1.578C241.534 3.467 223.703 8.21 210 13.66C174.195 27.899 145.341 50.767 120.121 84.891C112.495 95.209 110.404 99.235 116.168 92.5C151.762 50.911 195.49 25.895 243.845 19.458C257.696 17.614 280.752 17.646 293.995 19.528C320.976 23.363 349.455 33.985 372.195 48.695C400.656 67.106 427.794 97.791 442.652 128.361C445.456 134.131 445.67 134.308 456.5 139.85C462.55 142.946 467.814 145.626 468.198 145.806C469.282 146.313 464.185 128.467 460.541 118.998C446.924 83.612 423.313 54.541 390.514 32.777C356.519 10.219 321.786 -0.163004 281.199 0.102996C272.564 0.158996 260.961 0.823002 255.414 1.578ZM249 36.648C240.06 37.824 220.593 42.209 212 44.982C199.134 49.134 176.564 60.568 165.046 68.769C133.228 91.424 109.103 124.447 96.473 162.637C91.381 178.032 90.875 183.176 95.808 169.384C99.283 159.671 108.218 142.896 116.255 131C128.006 113.604 145.422 95.635 162.053 83.747C172.904 75.991 195.22 64.421 206.673 60.614C267.677 40.334 331.53 57.607 382.19 108.093L392.88 118.746L402.19 121.03C407.31 122.287 413.933 124.144 416.907 125.157C419.88 126.171 422.931 127 423.687 127C425.472 127 416.801 114.026 407.891 103.364C380.581 70.684 341.634 47.371 300.154 38.875C290.663 36.931 257.744 35.498 249 36.648ZM326 120.012C313.858 120.994 303.818 122.987 295.42 126.083C289.988 128.085 256.666 147.183 237.5 159.279C222.561 168.707 222.32 168.803 210.5 170C156.276 175.496 104.849 193.48 92.283 211.341C87.454 218.203 86.663 221.206 87.289 230.291C87.777 237.384 91.277 253.611 92.605 254.939C93.744 256.077 133.876 251.387 148.019 248.463C150.523 247.946 150.537 247.881 150.519 237.221C150.501 227.283 150.727 226.022 153.603 219.953C158.957 208.654 166.425 201.899 177.801 198.067C185.402 195.506 196.64 195.327 203.572 197.655C216.893 202.13 226.876 214.152 228.577 227.771C229.227 232.976 229.337 233.132 231.875 232.488C237.956 230.945 251.344 228.653 281.499 223.992C339.534 215.022 355.952 213.114 383.167 212.176L402.834 211.499L410.167 204.391C414.2 200.482 419.848 196.095 422.717 194.642C429.9 191.004 430.681 191.361 424 195.227C420.975 196.978 415.203 201.63 411.173 205.565L403.845 212.72L391.673 213.948C351.63 217.986 307.227 225.37 226 241.5C191.625 248.326 158.1 254.844 151.5 255.985C82.672 267.88 48.164 266.143 11 248.912L0.499973 244.044L5.49997 248.633C21.989 263.766 39.093 271.937 65.335 277.22C75.167 279.199 79.485 279.464 101.5 279.438C136.643 279.396 170.422 274.927 245.5 260.386C345.563 241.006 363.695 237.82 395.5 234.036C404.85 232.923 412.837 232.01 413.25 232.007C413.663 232.003 414 230.722 414 229.159C414 224.372 416.73 216.909 420.465 211.486C432.352 194.228 457.274 191.088 474.504 204.678C480.189 209.162 486.757 219.594 488.58 227.034L490.181 233.567L501.765 235.795C516.455 238.621 535.035 244.815 545.99 250.537L554.5 254.983L548.247 249.114C544.808 245.886 538.588 240.891 534.425 238.013C526.82 232.756 507.622 222.791 498.728 219.485C491.668 216.861 493.823 216.448 501.852 218.886C505.679 220.049 509.143 221 509.549 221C509.955 221 510.024 214.137 509.703 205.75C508.874 184.095 505.131 170.281 498.853 165.696C497.396 164.633 491.873 162.507 486.578 160.973C480.422 159.189 473.364 156.135 467.006 152.503C443.864 139.286 403.944 126.228 372.5 121.591C359.31 119.646 339.036 118.957 326 120.012ZM335 129.648C314.528 131.564 303.182 134.441 289.068 141.294C278.263 146.54 238.724 172.672 239.242 174.225C239.726 175.677 392.629 175.374 400.448 173.906C405.759 172.908 405.883 172.8 409.424 166C411.856 161.328 417 146.001 417 143.424C417 141.692 414.895 140.819 401.5 137C381.897 131.411 351.76 128.079 335 129.648ZM417.238 150.417C416.631 154.956 415.209 161.3 414.079 164.514C412.95 167.729 412.228 170.561 412.475 170.808C414.126 172.46 437.641 152.846 436.406 150.847C435.724 149.744 429.577 146.593 423.22 144.087L418.342 142.164L417.238 150.417ZM491 171.738C487.616 172.143 484 174.423 484 176.152C484 179.358 501.865 193 506.064 193C508.852 193 505.105 177.014 501.463 173.372C499.14 171.049 498.111 170.889 491 171.738ZM147.5 195.183C145.3 195.719 136.75 197.758 128.5 199.712C120.25 201.667 111.894 204.074 109.932 205.061C103.664 208.213 96.069 218.402 98.314 220.647C99.179 221.512 118.935 218.175 124.42 216.238C127.784 215.049 132.052 212.019 137.92 206.653C142.639 202.337 148.188 197.94 150.25 196.883C156.068 193.899 155.132 193.321 147.5 195.183ZM182.23 203.55C175.027 205.49 172.028 207.179 166.842 212.219C158.959 219.881 155.369 231.495 157.453 242.599L158.136 246.24L163.08 245.584C170.472 244.603 171.045 244.25 169.943 241.35C166.507 232.314 172.923 219.844 183.218 215.551C195.307 210.508 209.512 218.861 210.749 231.74L211.218 236.62L216.609 235.643L222 234.666V230.37C222 218.057 212.971 206.79 200.501 203.542C193.343 201.678 189.179 201.68 182.23 203.55ZM440.404 203.766C432.744 206.505 427.528 211.158 424.101 218.306C422.469 221.713 420.842 225.962 420.487 227.75L419.841 231H425.407C430.741 231 431.03 230.864 432.335 227.75C434.324 223.003 438.933 217.926 442.671 216.364C452.602 212.215 465.675 218.032 469.21 228.174C470.172 230.933 470.763 231.175 479.898 232.559L484.295 233.226L483.635 229.925C482.546 224.48 478.464 216.519 474.525 212.16C466.59 203.376 451.723 199.719 440.404 203.766ZM440.5 257.608C396.536 260.093 374.283 263.491 254 286.088C133.448 308.735 110.334 311.917 75.5 310.658C48.796 309.692 26.063 303.569 8.12697 292.511C4.10297 290.03 0.592972 288 0.327972 288C0.0629717 288 1.97797 290.496 4.58497 293.548C17.772 308.983 43.223 322.383 70.262 328.127C78.661 329.911 84.886 330.383 104.919 330.756C147.795 331.553 182.404 327.115 286.631 307.454C409.652 284.248 434.988 280.274 474.078 278.047C510.196 275.99 535.904 280.153 558 291.636L566.5 296.054L560 289.977C542.072 273.216 519.01 263.324 489.126 259.576C477.111 258.069 451.026 257.013 440.5 257.608ZM389.5 312.046C300.26 329.038 223.461 342.081 195.516 344.991C189.475 345.62 184.333 346.334 184.089 346.578C183.337 347.33 187.047 349.603 197.478 354.783C242.638 377.206 293.063 380.896 341.473 365.32C361.395 358.91 382.631 347.742 397.829 335.684C406.4 328.884 424.157 311.98 427.175 307.75C429.03 305.149 429.038 305.005 427.318 305.095C426.318 305.148 409.3 308.275 389.5 312.046Z" fill="black"/>
</svg>
